<mxfile host="65bd71144e">
    <diagram id="3BcqYq1dNmGBUhCzZV8g" name="Page-1">
        <mxGraphModel dx="968" dy="536" grid="1" gridSize="10" guides="1" tooltips="1" connect="1" arrows="1" fold="1" page="1" pageScale="1" pageWidth="850" pageHeight="1100" math="0" shadow="0">
            <root>
                <mxCell id="0"/>
                <mxCell id="1" parent="0"/>
                <object label="#&lt;span style=&quot;color: rgb(78, 201, 176); background-color: rgb(0, 0, 0); font-family: Consolas, &amp;quot;Courier New&amp;quot;, monospace;&quot;&gt;ConexaoDB&lt;br&gt;&lt;/span&gt;" HostName="" id="2">
                    <mxCell style="html=1;" vertex="1" parent="1">
                        <mxGeometry x="70" y="140" width="110" height="50" as="geometry"/>
                    </mxCell>
                </object>
            </root>
        </mxGraphModel>
    </diagram>
</mxfile>